<?xml version="1.0" encoding="utf-8"?>
<!-- Generator: Adobe Illustrator 26.3.1, SVG Export Plug-In . SVG Version: 6.00 Build 0)  -->
<svg version="1.1" id="레이어_1" xmlns="http://www.w3.org/2000/svg" xmlns:xlink="http://www.w3.org/1999/xlink" x="0px"
	 y="0px" viewBox="0 0 144 48" style="enable-background:new 0 0 144 48;" xml:space="preserve">
<style type="text/css">
	.st0{fill:#636569;}
	.st1{fill:#EF7C10;}
	.st2{fill-rule:evenodd;clip-rule:evenodd;fill:#EF7C10;}
</style>
<g id="XMLID_894_">
	<g id="XMLID_914_">
		<path id="XMLID_1082_" class="st0" d="M59.7,26.4l-3.3,0c-0.8,2.6-3.2,4.5-6.1,4.5c-3.5,0-6.4-2.9-6.4-6.4c0-3.5,2.9-6.4,6.4-6.4
			c2.2,0,4.2,1.2,5.3,2.9l3.1-3.1c-2-2.5-5-4.1-8.5-4.1c-5.9,0-10.7,4.8-10.7,10.7s4.8,10.7,10.7,10.7c5.3,0,9.7-3.8,10.6-8.9H59.7z
			"/>
		<path id="XMLID_1081_" class="st0" d="M109.9,13.8c-2.5,0-4.8,1.1-6.3,2.8c-1.6-1.7-3.8-2.8-6.3-2.8c-4.7,0-8.5,3.8-8.5,8.5v13
			h4.3v-13c0-2.3,1.9-4.2,4.2-4.2s4.2,1.9,4.2,4.2v13h4.3v-13c0-2.3,1.9-4.2,4.2-4.2c2.3,0,4.2,1.9,4.2,4.2v13h4.3v-13
			C118.4,17.6,114.6,13.8,109.9,13.8z"/>
		<path id="XMLID_929_" class="st0" d="M84.7,24.6c0,0,0-0.1,0-0.1c0-5.9-4.8-10.7-10.7-10.7c-5.9,0-10.7,4.8-10.7,10.7
			c0,5.9,4.8,10.7,10.7,10.7c2.4,0,4.6-0.8,6.4-2.1v2.1h4.4L84.7,24.6L84.7,24.6z M73.9,30.9c-3.5,0-6.4-2.9-6.4-6.4
			c0-3.5,2.9-6.4,6.4-6.4c3.5,0,6.4,2.9,6.4,6.4C80.3,28,77.5,30.9,73.9,30.9z"/>
		<path id="XMLID_915_" class="st0" d="M133.1,13.7c-5.9,0-10.7,4.8-10.7,10.7c0,0,0,0.1,0,0.1h0v14.3h4.4v-5.8
			c1.8,1.3,4,2.1,6.4,2.1c5.9,0,10.7-4.8,10.7-10.7C143.8,18.5,139,13.7,133.1,13.7z M133.1,30.8c-3.5,0-6.4-2.9-6.4-6.4
			c0-3.5,2.9-6.4,6.4-6.4c3.5,0,6.4,2.9,6.4,6.4C139.4,28,136.6,30.8,133.1,30.8z"/>
	</g>
	<path id="XMLID_913_" class="st1" d="M33,24.5c0,1.3-1.1,2.4-2.4,2.4c-1.3,0-2.4-1.1-2.4-2.4c0-1.3,1.1-2.4,2.4-2.4
		C32,22.1,33,23.2,33,24.5z"/>
	<path id="XMLID_896_" class="st2" d="M21,28.2c0.4-1.1,0.7-2.4,0.7-3.7c0,0,0-0.1,0-0.1h0V10.1h-4.4v5.8c-1.8-1.3-4-2.1-6.4-2.1
		c-5.9,0-10.7,4.8-10.7,10.7s4.8,10.7,10.7,10.7c2.3,0,4.4-0.7,6.2-2l-2.7-3.4c-0.9,0.6-1.9,0.9-2.9,1l2.7-3l4.6,5.9h7.1L21,28.2z
		 M16.7,27h-3.6l-3.3,3.7c-3-0.5-5.2-3.1-5.2-6.3c0-3.5,2.9-6.4,6.4-6.4c3.5,0,6.4,2.9,6.4,6.4C17.3,25.4,17.1,26.2,16.7,27z"/>
</g>
</svg>
